<svg id="information" xmlns="http://www.w3.org/2000/svg" width="20" height="20" viewBox="0 0 20 20">
  <defs>
    <style>
      .cls-1 {
        fill: #707070;
      }
    </style>
  </defs>
  <path id="Path_3360" data-name="Path 3360" class="cls-1" d="M10,1.5c-.3,0-.592.013-.871.041a8.47,8.47,0,0,0-.841.125,8.374,8.374,0,0,0-.814.205,8.12,8.12,0,0,0-.765.28l-.016.008h0c-.265.114-.518.236-.76.366s-.479.273-.7.423-.443.313-.649.483-.407.352-.6.545l-.007.007q-.288.288-.542.6t-.483.65c-.15.221-.29.456-.422.7s-.254.5-.368.76l-.008.018h0l-.011.023a7.918,7.918,0,0,0-.272.75,8.144,8.144,0,0,0-.2.8,8.4,8.4,0,0,0-.125.842c-.028.28-.041.57-.041.871s.013.593.041.871a8.474,8.474,0,0,0,.125.842,8.379,8.379,0,0,0,.207.814c.08.256.171.51.277.759a.325.325,0,0,1,.016.034q.168.391.363.749c.132.244.273.479.422.7a7.948,7.948,0,0,0,.485.651q.249.3.531.584A.277.277,0,0,1,4,16.033c.189.189.384.365.584.531s.425.332.649.483.456.29.7.422.5.254.76.368l.034.016a7.957,7.957,0,0,0,.76.275,8.109,8.109,0,0,0,.8.2,8.4,8.4,0,0,0,.841.125c.28.028.57.041.871.041s.592-.013.871-.041a8.469,8.469,0,0,0,.841-.125,8.375,8.375,0,0,0,.814-.207,7.883,7.883,0,0,0,.767-.282l.015-.007v0c.265-.114.518-.236.76-.366s.479-.273.7-.423.443-.313.649-.483.4-.345.589-.536c.01-.01.018-.02.029-.029.187-.187.363-.383.529-.583s.334-.425.485-.651.29-.456.422-.7.254-.495.368-.76l.016-.036a7.9,7.9,0,0,0,.275-.757,8.145,8.145,0,0,0,.2-.8,8.4,8.4,0,0,0,.125-.842c.028-.28.041-.57.041-.871s-.013-.593-.041-.871a8.474,8.474,0,0,0-.125-.842,8.378,8.378,0,0,0-.207-.814,7.886,7.886,0,0,0-.282-.767l-.007-.015h0c-.114-.265-.236-.518-.366-.76s-.273-.479-.422-.7-.312-.443-.483-.65-.345-.4-.534-.588A.249.249,0,0,1,16,3.959c-.189-.189-.382-.365-.584-.531S15,3.1,14.771,2.945s-.456-.29-.7-.422-.495-.254-.76-.366l-.031-.015a8.03,8.03,0,0,0-1.564-.479,8.4,8.4,0,0,0-.841-.125C10.592,1.516,10.3,1.5,10,1.5Zm.309,3.572a1.056,1.056,0,0,1,1.144,1.148,1.238,1.238,0,0,1-.522.972,1.893,1.893,0,0,1-1.224.427,1.192,1.192,0,0,1-.84-.293,1,1,0,0,1-.319-.773,1.331,1.331,0,0,1,.519-1.042,1.85,1.85,0,0,1,1.242-.438ZM12.3,14.929H7.7v-.773h.863V9.434H7.7V8.818H9.85a6.5,6.5,0,0,0,1.6-.2v5.536H12.3v.773ZM7.995.2A9.908,9.908,0,0,1,8.984.05a10.245,10.245,0,0,1,2.031,0,9.908,9.908,0,0,1,.99.145,9.618,9.618,0,0,1,.947.241,9.506,9.506,0,0,1,.908.332l.031.011h0l.01,0c.3.13.594.272.876.425s.553.317.825.5.522.37.77.573a9.143,9.143,0,0,1,.706.643q.337.337.643.706c.2.247.394.5.573.77s.343.54.5.824h0c.153.283.3.576.425.877l.01.024a9.538,9.538,0,0,1,.334.912A9.3,9.3,0,0,1,19.806,8a9.912,9.912,0,0,1,.145.99Q20,9.5,20,10a10.155,10.155,0,0,1-.05,1.016,9.914,9.914,0,0,1-.145.99,9.623,9.623,0,0,1-.241.947c-.094.308-.207.612-.334.915l-.007.015h0l-.008.018c-.13.3-.272.594-.425.876s-.317.553-.5.825-.369.523-.573.77a9.455,9.455,0,0,1-.643.706q-.337.337-.708.643t-.768.571q-.4.266-.824.5c-.29.156-.581.3-.877.427l-.026.01a9.534,9.534,0,0,1-.911.334,9.376,9.376,0,0,1-.957.244,9.908,9.908,0,0,1-.99.145Q10.5,20,10,20t-1.016-.049a9.908,9.908,0,0,1-.99-.145,9.623,9.623,0,0,1-1.86-.575L6.1,19.219h0c-.3-.13-.594-.272-.876-.425s-.553-.317-.825-.5-.522-.37-.768-.571-.483-.418-.708-.643-.439-.461-.643-.706-.394-.5-.573-.77-.343-.54-.5-.824S.91,14.2.783,13.9l-.01-.024a9.537,9.537,0,0,1-.334-.912A9.41,9.41,0,0,1,.2,12.006a9.912,9.912,0,0,1-.145-.99,10.234,10.234,0,0,1,0-2.03A9.913,9.913,0,0,1,.2,8a9.622,9.622,0,0,1,.241-.947q.142-.459.332-.91L.783,6.1h0c.13-.3.272-.594.425-.876s.317-.553.5-.825.369-.523.573-.77a9.454,9.454,0,0,1,.643-.706q.337-.337.706-.643c.247-.2.5-.394.77-.573s.547-.348.825-.5l.021-.01c.282-.153.566-.29.856-.415l.024-.01A9.534,9.534,0,0,1,7.038.44,9.165,9.165,0,0,1,7.995.2Z" transform="translate(0 0)"/>
</svg>
