<svg xmlns="http://www.w3.org/2000/svg" width="20" height="20" viewBox="0 0 20 20">
  <defs>
    <style>
      .cls-1 {
        fill: #707070;
      }
    </style>
  </defs>
  <g id="four-corners-arrows-line" transform="translate(0.01 0.01)">
    <path id="Path_420" data-name="Path 420" class="cls-1" d="M18.688,14.623a.651.651,0,1,1,1.3,0v4.683a.651.651,0,0,1-.651.652H14.584a.652.652,0,0,1,0-1.3h3.121l-5.592-5.291a.65.65,0,0,1,.89-.946L18.688,17.8V14.623Zm-4.08-13.33a.652.652,0,0,1,0-1.3h4.679a.651.651,0,0,1,.651.652V5.4a.651.651,0,1,1-1.3,0V2.277l-5.286,5.6a.65.65,0,1,1-.945-.891l5.373-5.69ZM1.292,5.328a.651.651,0,1,1-1.3,0V.645A.651.651,0,0,1,.641-.007H5.394a.652.652,0,0,1,0,1.3H2.275L7.866,6.587a.65.65,0,0,1-.89.946L1.292,2.155V5.328Zm4.06,13.359a.652.652,0,0,1,0,1.3H.673a.651.651,0,0,1-.651-.652v-4.76a.651.651,0,1,1,1.3,0V17.7l5.286-5.6A.65.65,0,1,1,7.555,13l-5.373,5.69h3.17Z"/>
  </g>
</svg>
